<?xml version="1.0" encoding="utf-8"?>
<!-- Generator: Adobe Illustrator 16.0.0, SVG Export Plug-In . SVG Version: 6.00 Build 0)  -->
<!DOCTYPE svg PUBLIC "-//W3C//DTD SVG 1.1//EN" "http://www.w3.org/Graphics/SVG/1.1/DTD/svg11.dtd">
<svg version="1.1" id="Ebene_1" xmlns="http://www.w3.org/2000/svg" xmlns:xlink="http://www.w3.org/1999/xlink" x="0px" y="0px"
	 width="36px" height="36px" viewBox="0 0 36 36" enable-background="new 0 0 36 36" xml:space="preserve">
<g>
	<polyline fill="#3C3C3C" points="32,12 32,14 25,24 25,34 21,32 21,24 14,14 14,12 32,12 	"/>
	<path fill="#00AAFF" d="M13.903,17.35C11.951,16.858,10.5,15.104,10.5,13c0-2.484,2.014-4.5,4.5-4.5c1.327,0,2.508,0.586,3.332,1.5
		h4.072C22.262,9.649,22.1,9.309,21.91,8.984l1.93-2.702L21.719,4.16l-2.701,1.93c-0.611-0.356-1.272-0.631-1.972-0.816L16.5,2h-3
		l-0.546,3.274c-0.7,0.185-1.361,0.46-1.972,0.816L8.283,4.161L6.161,6.283L8.09,8.982c-0.356,0.611-0.631,1.272-0.816,1.972L4,11.5
		v3l3.274,0.546c0.185,0.7,0.46,1.361,0.816,1.972l-1.928,2.699l2.121,2.122l2.699-1.929c0.611,0.355,1.272,0.631,1.972,0.816
		L13.5,24h3l0.396-2.375L13.903,17.35z"/>
</g>
</svg>
