<?xml version="1.0" encoding="utf-8"?>
<!-- Generator: Adobe Illustrator 16.0.0, SVG Export Plug-In . SVG Version: 6.00 Build 0)  -->
<!DOCTYPE svg PUBLIC "-//W3C//DTD SVG 1.1//EN" "http://www.w3.org/Graphics/SVG/1.1/DTD/svg11.dtd">
<svg version="1.1" id="Ebene_1" xmlns="http://www.w3.org/2000/svg" xmlns:xlink="http://www.w3.org/1999/xlink" x="0px" y="0px"
	 width="36px" height="36px" viewBox="0 0 36 36" enable-background="new 0 0 36 36" xml:space="preserve">
<g>
	<polyline fill="#00AAFF" points="11,23 21,28 11,33 11,30 3,30 3,26 11,26 11,23 	"/>
	<path fill="#3C3C3C" d="M18,5C11.372,5,6,10.374,6,17c0,2.615,0.846,5.028,2.267,7H9v-4.236l15.105,7.553
		C27.63,25.227,30,21.394,30,17C30,10.374,24.627,5,18,5z M22,18h-3v3h-2v-3h-3v-2h3v-3h2v3h3V18z"/>
</g>
</svg>
